<svg width="122" height="32" viewBox="0 0 1217 285" fill="none" xmlns="http://www.w3.org/2000/svg"><path fill-rule="evenodd" clip-rule="evenodd" d="M370.095 210.033c-4.476-1.71-7.404-5.316-7.404-10.124 0-5.83 4.818-10.631 10.675-10.631 1.722 0 3.096.34 4.302.855 7.578 3.432 15.666 5.489 25.483 5.489 17.904 0 26.341-8.575 26.341-25.049v-4.461c-7.753 9.269-16.183 14.925-30.127 14.925-21.523 0-40.982-15.613-40.982-42.892v-.341c0-27.453 19.801-42.892 40.982-42.892 14.286 0 22.722 6.003 29.779 13.723v-.174c0-7.032 5.856-12.862 13.086-12.862 7.231 0 13.081 5.83 13.081 13.036v59.193c0 16.474-3.954 28.482-11.707 36.201-8.604 8.581-21.865 12.355-39.763 12.355-12.229 0-22.903-2.057-33.746-6.351zm59.397-71.888v-.341c0-12.528-9.817-21.276-22.555-21.276-12.739 0-22.381 8.748-22.381 21.276v.341c0 12.695 9.642 21.276 22.381 21.276 12.738 0 22.555-8.749 22.555-21.276z" fill="#0E101A"/><path fill-rule="evenodd" clip-rule="evenodd" d="M370.095 210.033c-4.476-1.71-7.404-5.316-7.404-10.124 0-5.83 4.818-10.631 10.675-10.631 1.722 0 3.096.34 4.302.855 7.578 3.432 15.666 5.489 25.483 5.489 17.904 0 26.341-8.575 26.341-25.049v-4.461c-7.753 9.269-16.183 14.925-30.127 14.925-21.523 0-40.982-15.613-40.982-42.892v-.341c0-27.453 19.801-42.892 40.982-42.892 14.286 0 22.722 6.003 29.779 13.723v-.174c0-7.032 5.856-12.862 13.086-12.862 7.231 0 13.081 5.83 13.081 13.036v59.193c0 16.474-3.954 28.482-11.707 36.201-8.604 8.581-21.865 12.355-39.763 12.355-12.229 0-22.903-2.057-33.746-6.351zm59.397-71.888v-.341c0-12.528-9.817-21.276-22.555-21.276-12.739 0-22.381 8.748-22.381 21.276v.341c0 12.695 9.642 21.276 22.381 21.276 12.738 0 22.555-8.749 22.555-21.276zm40.634-29.51c0-7.206 5.85-13.036 13.086-13.036 7.23 0 13.08 5.83 13.08 13.036v4.114c3.793-8.916 9.985-17.15 17.737-17.15 8.095 0 12.739 5.316 12.739 12.689 0 6.865-4.476 10.985-9.81 12.187-13.261 3.091-20.666 13.209-20.666 31.74v24.361c0 7.206-5.85 13.042-13.08 13.042-7.236 0-13.086-5.836-13.086-13.042v-67.941zm53.546 53.53v-.34c0-20.074 15.318-29.343 37.189-29.343 9.295 0 16.009 1.543 22.555 3.773v-1.543c0-10.805-6.72-16.815-19.801-16.815-7.23 0-13.086 1.035-18.078 2.578-1.548.514-2.58.688-3.786.688-6.025 0-10.849-4.635-10.849-10.645 0-4.628 2.922-8.574 7.062-10.123 8.263-3.086 17.215-4.796 29.437-4.796 14.287 0 24.619 3.773 31.16 10.291 6.888 6.859 9.99 16.989 9.99 29.343v41.858c0 7.038-5.682 12.527-12.744 12.527-7.573 0-12.565-5.316-12.565-10.811v-.174c-6.372 7.039-15.15 11.667-27.895 11.667-17.383 0-31.675-9.944-31.675-28.135zm60.086-6.003v-4.635c-4.476-2.057-10.326-3.432-16.705-3.432-11.19 0-18.072 4.461-18.072 12.701v.341c0 7.038 5.856 11.152 14.286 11.152 12.229 0 20.491-6.691 20.491-16.127zm38.744-47.527c0-7.206 5.85-13.036 13.087-13.036 7.23 0 13.086 5.83 13.086 13.036v1.035c6.018-7.726 13.945-14.758 27.199-14.758 12.048 0 21.175 5.315 25.993 14.584 8.094-9.436 17.737-14.584 30.301-14.584 19.459 0 31.166 11.666 31.166 33.803v47.861c0 7.206-5.857 13.042-13.087 13.042-7.23 0-13.087-5.836-13.087-13.042V137.29c0-12.354-5.508-18.705-15.318-18.705-9.817 0-15.841 6.351-15.841 18.705v39.286c0 7.206-5.85 13.042-13.086 13.042-7.231 0-13.087-5.836-13.087-13.042V137.29c0-12.354-5.502-18.705-15.318-18.705-9.817 0-15.835 6.351-15.835 18.705v39.286c0 7.206-5.856 13.042-13.086 13.042-7.237 0-13.087-5.836-13.087-13.042v-67.941zm154.956 0c0-7.206 5.85-13.036 13.087-13.036 7.23 0 13.087 5.83 13.087 13.036v1.035c6.017-7.726 13.944-14.758 27.198-14.758 12.049 0 21.175 5.315 25.993 14.584 8.095-9.436 17.737-14.584 30.302-14.584 19.458 0 31.165 11.666 31.165 33.803v47.861c0 7.206-5.85 13.042-13.087 13.042-7.23 0-13.086-5.836-13.086-13.042V137.29c0-12.354-5.508-18.705-15.319-18.705-9.816 0-15.84 6.351-15.84 18.705v39.286c0 7.206-5.85 13.042-13.087 13.042-7.23 0-13.08-5.836-13.08-13.042V137.29c0-12.354-5.509-18.705-15.325-18.705-9.817 0-15.834 6.351-15.834 18.705v39.286c0 7.206-5.857 13.042-13.087 13.042-7.237 0-13.087-5.836-13.087-13.042v-67.941zm149.449 53.53v-.34c0-20.074 15.324-29.343 37.183-29.343 9.3 0 16.015 1.543 22.555 3.773v-1.543c0-10.805-6.708-16.815-19.801-16.815-7.23 0-13.08 1.035-18.073 2.578-1.548.514-2.58.688-3.786.688-6.03 0-10.848-4.635-10.848-10.645 0-4.628 2.928-8.574 7.056-10.123 8.269-3.086 17.221-4.796 29.443-4.796 14.293 0 24.619 3.773 31.164 10.291 6.88 6.859 9.98 16.989 9.98 29.343v41.858c0 7.038-5.68 12.527-12.732 12.527-7.579 0-12.571-5.316-12.571-10.811v-.174c-6.372 7.039-15.157 11.667-27.889 11.667-17.395 0-31.681-9.944-31.681-28.135zm60.086-6.003v-4.635c-4.476-2.057-10.332-3.432-16.699-3.432-11.196 0-18.078 4.461-18.078 12.701v.341c0 7.038 5.85 11.152 14.286 11.152 12.222 0 20.491-6.691 20.491-16.127zm38.737-47.527c0-7.206 5.86-13.036 13.09-13.036 7.23 0 13.08 5.83 13.08 13.036v4.114c3.79-8.916 9.99-17.15 17.74-17.15 8.09 0 12.73 5.316 12.73 12.689 0 6.865-4.47 10.985-9.81 12.187-13.25 3.091-20.66 13.209-20.66 31.74v24.361c0 7.206-5.85 13.042-13.08 13.042s-13.09-5.836-13.09-13.042v-67.941zm64.57-33.289c0-7.206 5.85-13.036 13.08-13.036 7.24 0 13.09 5.83 13.09 13.036v101.23c0 7.206-5.85 13.042-13.09 13.042-7.23 0-13.08-5.836-13.08-13.042V75.346zm47.01 138.807c-3.8-1.369-8.27-4.461-8.27-10.805 0-6.351 4.99-10.644 10.33-10.644 2.06 0 3.27.347 4.3.687 2.24.688 3.62 1.035 5.52 1.035 4.64 0 6.88-.861 9.29-5.495l.86-2.057-31.5-72.75c-.69-1.716-1.38-4.287-1.38-6.003 0-7.379 5.68-12.522 12.91-12.522 6.54 0 10.33 3.6 12.56 9.771l19.98 53.536 19.28-53.363c2.07-5.483 5.85-9.944 12.57-9.944 6.71 0 12.39 5.143 12.39 12.007 0 2.064-.69 4.976-1.2 6.178l-32.2 77.036c-7.75 18.699-15.49 25.737-31.16 25.737-5.85 0-9.98-.855-14.28-2.404z" fill="#0E101A"/><path d="M142.5 0C63.802 0 0 63.797 0 142.5h285C285 63.797 221.203 0 142.5 0z" fill="#06C"/><path d="M142.5 285c78.703 0 142.5-63.802 142.5-142.5H0C0 221.198 63.802 285 142.5 285z" fill="#FC0"/><g filter="url(#a)"><path fill-rule="evenodd" clip-rule="evenodd" d="M170.615 161.816c-1.42 0-2.823.314-4.108.919a9.667 9.667 0 0 0-5.382 10.536c.84 4.665 5.227 7.86 9.969 7.86h14.929l8.656-1.214c-13.849 20.318-37.891 29.664-64.181 25.539-21.397-3.362-39.766-17.835-47.56-38.057-17.589-45.907 15.938-89.736 59.623-89.736 22.772 0 42.733 13.331 54.183 29.424v.35a9.703 9.703 0 0 0 13.443 2.594 9.525 9.525 0 0 0 2.783-12.68h.073a83.603 83.603 0 0 0-76.294-38.408c-41.636 2.805-75.352 36.9-77.746 78.581-2.783 48.511 35.698 88.121 83.558 88.121a82.822 82.822 0 0 0 62.984-28.661l-1.815 10.17v9.184c0 4.732 3.189 9.124 7.86 9.964a9.661 9.661 0 0 0 11.455-9.496v-54.99h-52.43z" fill="#fff"/></g><defs><filter id="a" x="58.861" y="58.739" width="164.184" height="174.731" filterUnits="userSpaceOnUse" color-interpolation-filters="sRGB"><feFlood flood-opacity="0" result="BackgroundImageFix"/><feColorMatrix in="SourceAlpha" values="0 0 0 0 0 0 0 0 0 0 0 0 0 0 0 0 0 0 127 0" result="hardAlpha"/><feOffset dy="7"/><feColorMatrix values="0 0 0 0 0 0 0 0 0 0 0 0 0 0 0 0 0 0 0.15 0"/><feBlend in2="BackgroundImageFix" result="effect1_dropShadow_16268_50988"/><feBlend in="SourceGraphic" in2="effect1_dropShadow_16268_50988" result="shape"/></filter></defs></svg>